<?xml version="1.0" encoding="UTF-8" standalone="no"?>
<svg
   xmlns:dc="http://purl.org/dc/elements/1.1/"
   xmlns:cc="http://creativecommons.org/ns#"
   xmlns:rdf="http://www.w3.org/1999/02/22-rdf-syntax-ns#"
   xmlns:svg="http://www.w3.org/2000/svg"
   xmlns="http://www.w3.org/2000/svg"
   viewBox="0 0 442.78668 702.64001"
   height="702.64001"
   width="442.78668"
   xml:space="preserve"
   id="svg2"
   version="1.1"><metadata
     id="metadata8"><rdf:RDF><cc:Work
         rdf:about=""><dc:format>image/svg+xml</dc:format><dc:type
           rdf:resource="http://purl.org/dc/dcmitype/StillImage" /></cc:Work></rdf:RDF></metadata><defs
     id="defs6" /><g
     transform="matrix(1.3333333,0,0,-1.3333333,0,702.64)"
     id="g10"><g
       transform="scale(0.1)"
       id="g12"><path
         id="path14"
         style="fill:#fbbc09;fill-opacity:1;fill-rule:nonzero;stroke:none"
         d="m 2200.28,1775.09 c -91.68,143.97 -170.84,295.18 -252.81,443.25 -81.4,148.5 -167.61,293.43 -258.21,435.31 -180.36,284.43 -389.59,549.98 -614.36,803.91 -233.209,243.98 -483.572,485.27 -647.076,791.52 -80.23,152.55 -139.621,316.28 -176.601,484.51 -34.297,168.44 -51.989,342.05 -27.164,512.26 l 7.507,-0.83 c 0.153,-84.55 9.075,-168.8 21.942,-251.88 12.125,-83.23 30.73,-165.31 53.156,-246.03 43.313,-162.04 106.219,-317.66 179.824,-467.96 37.469,-74.86 76.512,-149.18 119.649,-221.48 44.062,-71.63 90.437,-142.27 141.758,-209.44 101.847,-135.52 227.324,-249.76 351.175,-367.12 249.1,-232.83 472.51,-495.69 658.37,-784 186.04,-289.51 314.26,-607.51 449.49,-918.42 z M 3302.06,45.4297 l 4.63,2.5781 C 3253.27,185.25 3123.38,415.289 2972.68,662.988 c -52.3,88.563 -104.97,176.91 -158.76,264.59 -175.28,284.972 -355.13,566.882 -539.13,846.542 -39.03,100.03 -45.27,213.08 -53.43,326.28 -4.61,56.83 -7.84,116.42 -22.22,176.48 -12.77,56.1 -26.11,112.13 -40.57,167.89 -56.1,223.48 -124.1,444.52 -206.95,660.49 -81.54,216.31 -180.61,427.26 -304.98,623.74 -62.06,98.17 -130.63,192.67 -207.71,280.08 l -233.98,252.99 -37.92,41 -0.6,-55.05 -0.98,-88.42 -251.208,221.83 c -93.836,84.32 -191.902,166.21 -282.277,252.53 -86.031,90.31 -160.465,192.96 -228.551,298.33 -33.781,52.94 -65.742,107.09 -93.949,162.77 -13.996,27.85 -27.09,56.12 -37.93,84.78 -10.301,28.06 -20.015,59.19 -18.086,83.61 l -38.648,6.38 c -25.578,-100.71 -48.067,-201.69 -67.164,-303.97 -9.414,-51.15 -17.574,-102.65 -23.91,-154.79 -2.137,-19.22 -3.985,-38.47 -5.414,-57.89 l -26.5005,37.53 -41.7695,59.17 -17.4492,-70.23 C 8.11719,4681.13 -0.257813,4585.09 0.00390625,4486.85 0.777344,4389.17 10.5273,4291.41 30.2969,4195.55 57.9219,4056.14 107.035,3921.41 172.402,3795.16 l -10.797,5.22 -90.023,43.53 19.711,-96.17 c 19.633,-95.75 54.746,-174.63 96.184,-254.61 41.812,-78.65 91.871,-152.13 146.636,-221.53 55.321,-68.99 116.84,-132.54 182.223,-191.31 21.457,-20.19 44.227,-38.76 67.016,-57.31 l -53.25,2.96 -108.391,6.01 61.809,-87.42 c 97.41,-137.76 204.824,-259.84 319.168,-378.51 114.5,-117.65 235.332,-229.08 363.052,-332.12 128.76,-101.76 263.05,-196.24 402.09,-283.13 70.7,-41.46 140.51,-84.58 213.37,-122.11 73.44,-36.09 142.19,-80.05 226.93,-104.82 40.19,-13.31 88.25,-18.58 121,-24.91 8.12,-1.67 13.01,-3.94 17.86,-6.65 4.53,-2.25 8.63,-6.87 16.19,-15.33 l 39.91,-44.68 c 52.91,-59.96 103.34,-122.93 152.35,-186.99 97.95,-128.26 191.09,-260.73 282.23,-394.57 40.76,-60.019 80.68,-120.589 120.23,-181.39 214.11,-341.05 385.62,-641.5 389.29,-647.82 l 139.55,-184.6094 4.64,2.5899 L 3320.91,0 3302.06,45.4297" /></g></g></svg>