<?xml version="1.0" encoding="UTF-8" standalone="no"?>
<svg
   xmlns:dc="http://purl.org/dc/elements/1.1/"
   xmlns:cc="http://creativecommons.org/ns#"
   xmlns:rdf="http://www.w3.org/1999/02/22-rdf-syntax-ns#"
   xmlns:svg="http://www.w3.org/2000/svg"
   xmlns="http://www.w3.org/2000/svg"
   viewBox="0 0 1174.4133 393.32001"
   height="393.32001"
   width="1174.4133"
   xml:space="preserve"
   id="svg2"
   version="1.1"><metadata
     id="metadata8"><rdf:RDF><cc:Work
         rdf:about=""><dc:format>image/svg+xml</dc:format><dc:type
           rdf:resource="http://purl.org/dc/dcmitype/StillImage" /></cc:Work></rdf:RDF></metadata><defs
     id="defs6" /><g
     transform="matrix(1.3333333,0,0,-1.3333333,0,393.32)"
     id="g10"><g
       transform="scale(0.1)"
       id="g12"><path
         id="path14"
         style="fill:#231f20;fill-opacity:1;fill-rule:nonzero;stroke:none"
         d="m 5140.1,1093.91 c 46.28,16.02 69.46,48.09 69.46,96.17 v 259.15 c -90.84,39.16 -190.6,58.78 -299.23,58.78 -101.52,0 -178.56,-17.83 -231.08,-53.43 -52.57,-35.66 -78.82,-89.09 -78.82,-160.3 0,-74.8 29.82,-130.9 89.5,-168.32 59.64,-37.4 130.45,-56.1 212.4,-56.1 112.2,0 191.42,8.01 237.77,24.05 z m 196.35,1061.95 c 102.41,-70.37 152.7,-183.91 150.95,-340.63 v -641.17 c 0,-121.14 -53.42,-205.31 -160.3,-252.47 -106.85,-47.168 -259.15,-70.789 -456.83,-70.789 -158.56,0 -289.46,32.961 -392.73,98.847 -103.31,65.862 -154.95,176.312 -154.95,331.272 0,146.01 42.3,255.56 126.89,328.61 84.58,73.01 204.38,109.53 359.33,109.53 160.3,0 293.88,-32.06 400.75,-96.17 v 128.23 c 0,181.67 -109.55,272.51 -328.61,272.51 -78.4,0 -156.74,-12.03 -235.1,-36.08 -78.4,-24.05 -143.4,-57.44 -195.04,-100.18 v 261.82 c 49.85,32.06 122.44,58.76 217.75,80.13 95.26,21.38 193.7,32.08 295.22,32.08 146.01,0 270.25,-35.2 372.67,-105.54" /><path
         id="path16"
         style="fill:#231f20;fill-opacity:1;fill-rule:nonzero;stroke:none"
         d="m 6044.43,2222.65 c 114.88,25.8 224.82,38.75 329.95,38.75 187,0 324.99,-39.2 414.09,-117.56 89.03,-78.4 133.58,-200.37 133.58,-366 V 890.871 h -280.53 v 849.559 c 0,187 -106,280.52 -317.91,280.52 -101.53,0 -198.62,-16.95 -291.21,-50.75 V 890.871 H 5751.89 V 2122.47 c 80.14,40.95 177.65,74.34 292.54,100.18" /><path
         id="path18"
         style="fill:#231f20;fill-opacity:1;fill-rule:nonzero;stroke:none"
         d="m 670.57,894.75 293.875,63.262 V 1687 l 646.515,985.82 h -317.9 L 836.199,1932.79 360.668,2672.82 H 0.00390625 L 670.57,1689.68 V 894.75" /><path
         id="path20"
         style="fill:#231f20;fill-opacity:1;fill-rule:nonzero;stroke:none"
         d="M 8511.6,2223.99 V 890.871 h 283.18 l -2.68,1333.119 h -280.5" /><path
         id="path22"
         style="fill:#231f20;fill-opacity:1;fill-rule:nonzero;stroke:none"
         d="m 8503.58,2607.24 v -281.98 h 299.23 v 217.58 l -299.23,64.4" /><path
         id="path24"
         style="fill:#231f20;fill-opacity:1;fill-rule:nonzero;stroke:none"
         d="m 2428.45,2180.34 v -749.8 c 0,-114 -25.36,-198.17 -76.13,-252.49 -50.76,-54.33 -129.57,-81.46 -236.44,-81.46 -106.85,0 -185.67,27.13 -236.44,81.46 -50.75,54.32 -76.14,138.49 -76.14,252.49 V 2232 h -280.51 v -841.55 c 0,-176.32 52.1,-310.35 156.28,-402.079 104.2,-91.742 249.8,-137.57 436.81,-137.57 185.21,0 328.61,45.828 430.13,137.57 101.52,91.729 152.27,225.759 152.27,402.079 v 731.82 l -269.83,58.07" /><path
         id="path26"
         style="fill:#231f20;fill-opacity:1;fill-rule:nonzero;stroke:none"
         d="M 7686.14,1649.59 8295.27,2232 h -344.66 l -488.89,-502.26 2.34,884.09 -280.21,-60.31 V 890.871 h 277.87 v 601.099 l 539.66,-601.099 h 363.31 l -678.55,758.719" /><path
         id="path28"
         style="fill:#231f20;fill-opacity:1;fill-rule:nonzero;stroke:none"
         d="m 3808.35,1207.46 c -65.04,-77.48 -160.75,-116.23 -287.2,-116.23 -101.53,0 -195.94,25.8 -283.18,77.48 v 742.71 c 0,33.8 27.11,60.53 81.47,80.15 54.31,19.58 125.98,29.38 215.06,29.38 138.94,0 235.52,-41.88 289.87,-125.57 54.31,-83.74 81.49,-201.28 81.49,-352.64 0,-146.08 -32.53,-257.81 -97.51,-335.28 z m 205.71,885.63 c -118.47,113.96 -274.76,170.96 -468.87,170.96 -160.3,0 -297.87,-23.16 -412.76,-69.44 -114.88,-46.34 -172.32,-120.23 -172.32,-221.75 V 79.9609 l 277.86,59.8011 v 788.519 c 49.83,-24.98 105.93,-43.633 168.29,-56.101 62.35,-12.461 117.56,-18.719 165.66,-18.719 195.89,0 348.17,61.461 456.83,184.349 108.61,122.89 162.96,289.41 162.96,499.58 0,256.47 -59.24,441.68 -177.65,555.7" /><path
         id="path30"
         style="fill:#fbbc09;fill-opacity:1;fill-rule:nonzero;stroke:none"
         d="m 1300.31,1388.88 -5.58,13.46 1.37,0.76 c -15.82,40.65 -54.3,108.79 -98.93,182.17 -15.5,26.23 -31.1,52.4 -47.04,78.38 -51.92,84.4 -105.19,167.92 -159.696,250.76 -11.559,29.63 -13.411,63.11 -15.829,96.65 -1.367,16.83 -2.324,34.48 -6.582,52.27 -3.781,16.62 -7.734,33.22 -12.015,49.73 -16.621,66.21 -36.762,131.68 -61.305,195.65 -24.152,64.08 -53.5,126.57 -90.34,184.77 -18.383,29.08 -38.691,57.07 -61.527,82.96 l -69.309,74.95 -11.23,12.14 -0.18,-16.31 -0.293,-26.19 -74.41,65.71 c -27.797,24.98 -56.844,49.24 -83.617,74.81 -25.484,26.74 -47.531,57.15 -67.699,88.36 -10.008,15.69 -19.477,31.73 -27.828,48.22 -4.149,8.25 -8.028,16.62 -11.235,25.12 -3.055,8.3 -5.933,17.52 -5.363,24.76 l -11.445,1.89 c -7.579,-29.83 -14.239,-59.74 -19.899,-90.04 -2.785,-15.15 -5.203,-30.41 -7.078,-45.85 -0.637,-5.7 -1.184,-11.4 -1.605,-17.15 l -7.848,11.12 -12.375,17.52 -5.168,-20.8 c -7.254,-29.18 -9.734,-57.63 -9.656,-86.73 0.23,-28.94 3.121,-57.9 8.976,-86.29 8.184,-41.3 22.731,-81.21 42.094,-118.61 l -3.199,1.55 -26.664,12.9 5.836,-28.49 c 5.812,-28.36 16.218,-51.73 28.492,-75.42 12.387,-23.3 27.215,-45.07 43.437,-65.63 16.383,-20.43 34.61,-39.25 53.977,-56.66 6.355,-5.98 13.101,-11.48 19.851,-16.98 l -15.773,0.88 -32.109,1.78 18.312,-25.9 c 28.852,-40.8 60.672,-76.97 94.539,-112.12 33.922,-34.85 69.711,-67.86 107.543,-98.38 38.145,-30.14 77.922,-58.13 119.11,-83.87 20.941,-12.28 41.621,-25.05 63.203,-36.17 21.757,-10.69 42.121,-23.71 67.218,-31.05 11.911,-3.94 26.145,-5.5 35.848,-7.38 2.402,-0.49 3.852,-1.17 5.289,-1.97 1.34,-0.66 2.555,-2.03 4.797,-4.54 l 11.82,-13.23 c 15.676,-17.77 30.614,-36.42 45.125,-55.39 29.02,-38 56.61,-77.24 83.6,-116.88 12.08,-17.78 23.9,-35.72 35.62,-53.73 63.43,-101.03 114.23,-190.03 115.31,-191.9 l 41.35,-54.68 1.37,0.76 8.74,-11.69" /><path
         id="path32"
         style="fill:#ffffff;fill-opacity:1;fill-rule:nonzero;stroke:none"
         d="m 385.191,2942.55 c 0.047,-25.04 2.692,-50 6.5,-74.61 3.59,-24.65 9.102,-48.97 15.747,-72.88 12.832,-48 31.464,-94.1 53.265,-138.62 11.102,-22.17 22.668,-44.19 35.445,-65.6 13.055,-21.22 26.79,-42.14 41.989,-62.04 30.172,-40.15 67.34,-73.99 104.023,-108.75 73.789,-68.97 139.973,-146.84 195.024,-232.24 55.109,-85.76 93.093,-179.95 133.152,-272.05 l -1.973,-1.06 c -27.16,42.64 -50.605,87.43 -74.89,131.29 -24.11,43.99 -49.649,86.92 -76.485,128.95 -53.425,84.25 -115.402,162.92 -181.98,238.13 -69.082,72.27 -143.246,143.74 -191.68,234.46 -23.765,45.19 -41.359,93.69 -52.316,143.52 -10.157,49.9 -15.395,101.33 -8.047,151.75 l 2.226,-0.25" /><path
         id="path34"
         style="fill:#231f20;fill-opacity:1;fill-rule:nonzero;stroke:none"
         d="m 893.68,314.832 -45.801,128.469 c -5.93,16.258 -12.035,36.199 -18.32,59.847 -3.957,-18.16 -9.614,-38.109 -16.981,-59.847 L 766.238,314.832 Z M 957.004,139.539 907.961,271.43 H 750.07 l -48.5,-131.891 h -46.343 l 155.738,416.359 h 38.531 L 1004.42,139.539 h -47.416" /><path
         id="path36"
         style="fill:#231f20;fill-opacity:1;fill-rule:nonzero;stroke:none"
         d="m 1109.88,350.84 c 0,-21.738 5.83,-38.199 17.51,-49.352 11.67,-11.16 27.93,-16.726 48.77,-16.726 43.65,0 65.47,22.297 65.47,66.929 0,46.7 -22.09,70.047 -66.28,70.047 -21.01,0 -37.18,-5.957 -48.5,-17.859 -11.31,-11.91 -16.97,-29.598 -16.97,-53.039 z M 1085.63,87.3594 c 0,-16.8281 6.74,-29.5899 20.2,-38.2891 13.48,-8.6992 32.79,-13.0508 57.94,-13.0508 37.54,0 65.34,5.9102 83.39,17.7305 18.05,11.8086 27.08,27.8398 27.08,48.07 0,16.84 -4.95,28.5 -14.82,35.02 -9.88,6.539 -28.48,9.801 -55.78,9.801 h -53.61 c -20.31,0 -36.11,-5.102 -47.43,-15.332 -11.31,-10.207 -16.97,-24.86 -16.97,-43.9496 z m 235.49,363.0316 v -29.782 l -54.7,-6.808 c 5.03,-6.621 9.52,-15.262 13.47,-25.949 3.96,-10.68 5.93,-22.743 5.93,-36.161 0,-30.441 -9.88,-54.742 -29.64,-72.89 -19.76,-18.153 -46.88,-27.223 -81.37,-27.223 -8.8,0 -17.06,0.754 -24.78,2.274 -19.05,-10.602 -28.56,-23.93 -28.56,-39.993 0,-8.519 3.32,-14.8 9.96,-18.871 6.64,-4.058 18.05,-6.097 34.22,-6.097 h 52.27 c 31.97,0 56.54,-7.09 73.7,-21.27 17.15,-14.18 25.73,-34.793 25.73,-61.832 0,-34.4101 -13.12,-60.6484 -39.34,-78.6992 C 1251.78,9.03125 1213.52,0 1163.23,0 c -38.63,0 -68.4,7.57031 -89.33,22.6914 -20.92,15.1289 -31.38,36.5 -31.38,64.0977 0,18.9099 5.75,35.2619 17.24,49.0629 11.49,13.796 27.66,23.168 48.5,28.089 -7.54,3.579 -13.87,9.161 -18.99,16.731 -5.12,7.558 -7.68,16.348 -7.68,26.367 0,11.352 2.87,21.281 8.62,29.781 5.74,8.52 14.82,16.739 27.21,24.68 -15.27,6.621 -27.71,17.871 -37.32,33.75 -9.6,15.891 -14.41,34.039 -14.41,54.461 0,34.027 9.7,60.269 29.1,78.711 19.4,18.418 46.88,27.637 82.45,27.637 15.44,0 29.36,-1.887 41.76,-5.668 h 102.12" /><path
         id="path38"
         style="fill:#231f20;fill-opacity:1;fill-rule:nonzero;stroke:none"
         d="m 1521.96,416.641 c -23.71,0 -42.62,-8.129 -56.72,-24.391 -14.1,-16.27 -22.41,-38.77 -24.92,-67.5 h 154.39 c 0,29.68 -6.29,52.422 -18.86,68.211 -12.58,15.789 -30.54,23.68 -53.89,23.68 z m 12.12,-282.77 c -43.65,0 -78.09,13.988 -103.33,41.981 -25.24,27.98 -37.85,66.828 -37.85,116.558 0,50.11 11.72,89.91 35.16,119.41 23.44,29.5 54.92,44.239 94.44,44.239 37,0 66.28,-12.809 87.83,-38.43 21.56,-25.629 32.34,-59.418 32.34,-101.391 v -29.777 h -203.43 c 0.9,-36.492 9.65,-64.199 26.27,-83.102 16.61,-18.91 40.01,-28.359 70.19,-28.359 31.79,0 63.23,6.988 94.3,20.98 V 154 c -15.8,-7.18 -30.76,-12.328 -44.86,-15.449 -14.1,-3.121 -31.12,-4.68 -51.06,-4.68" /><path
         id="path40"
         style="fill:#231f20;fill-opacity:1;fill-rule:nonzero;stroke:none"
         d="m 1948.59,139.539 v 201.09 c 0,25.332 -5.48,44.25 -16.43,56.73 -10.97,12.481 -28.12,18.711 -51.47,18.711 -30.89,0 -53.53,-8.789 -67.9,-26.371 -14.37,-17.59 -21.55,-46.609 -21.55,-87.078 V 139.539 h -44.73 v 310.852 h 36.37 l 7.28,-42.551 h 2.16 c 9.16,15.32 22,27.191 38.53,35.601 16.52,8.418 34.93,12.618 55.23,12.618 35.57,0 62.33,-9.028 80.29,-27.079 17.96,-18.058 26.94,-46.941 26.94,-86.648 V 139.539 h -44.72" /><path
         id="path42"
         style="fill:#231f20;fill-opacity:1;fill-rule:nonzero;stroke:none"
         d="m 2230.8,133.871 c -42.75,0 -75.85,13.848 -99.29,41.551 -23.44,27.699 -35.16,66.887 -35.16,117.558 0,52 11.89,92.168 35.7,120.54 23.8,28.371 57.7,42.539 101.71,42.539 14.19,0 28.39,-1.598 42.58,-4.821 14.18,-3.218 25.32,-6.988 33.4,-11.34 L 2296,399.91 c -9.88,4.16 -20.65,7.61 -32.33,10.352 -11.68,2.738 -22.01,4.109 -30.99,4.109 -59.99,0 -89.99,-40.281 -89.99,-120.82 0,-38.199 7.32,-67.5 21.97,-87.922 14.63,-20.418 36.32,-30.629 65.06,-30.629 24.61,0 49.85,5.57 75.71,16.73 v -41.691 c -19.76,-10.769 -44.63,-16.168 -74.63,-16.168" /><path
         id="path44"
         style="fill:#231f20;fill-opacity:1;fill-rule:nonzero;stroke:none"
         d="m 2515.71,416.641 c -23.71,0 -42.62,-8.129 -56.72,-24.391 -14.1,-16.27 -22.41,-38.77 -24.92,-67.5 h 154.38 c 0,29.68 -6.28,52.422 -18.86,68.211 -12.57,15.789 -30.53,23.68 -53.88,23.68 z m 12.12,-282.77 c -43.65,0 -78.1,13.988 -103.33,41.981 -25.24,27.98 -37.85,66.828 -37.85,116.558 0,50.11 11.72,89.91 35.15,119.41 23.45,29.5 54.93,44.239 94.44,44.239 37.01,0 66.29,-12.809 87.84,-38.43 21.56,-25.629 32.33,-59.418 32.33,-101.391 v -29.777 h -203.42 c 0.89,-36.492 9.65,-64.199 26.27,-83.102 16.61,-18.91 40.01,-28.359 70.19,-28.359 31.79,0 63.22,6.988 94.3,20.98 V 154 c -15.8,-7.18 -30.76,-12.328 -44.86,-15.449 -14.1,-3.121 -31.12,-4.68 -51.06,-4.68" /><path
         id="path46"
         style="fill:#231f20;fill-opacity:1;fill-rule:nonzero;stroke:none"
         d="m 3622.92,133.871 c -42.75,0 -75.84,13.848 -99.28,41.551 -23.44,27.699 -35.16,66.887 -35.16,117.558 0,52 11.89,92.168 35.69,120.54 23.8,28.371 57.72,42.539 101.71,42.539 14.2,0 28.39,-1.598 42.58,-4.821 14.19,-3.218 25.33,-6.988 33.42,-11.34 l -13.75,-39.988 c -9.88,4.16 -20.66,7.61 -32.33,10.352 -11.69,2.738 -22.01,4.109 -30.98,4.109 -60,0 -90,-40.281 -90,-120.82 0,-38.199 7.31,-67.5 21.96,-87.922 14.64,-20.418 36.33,-30.629 65.07,-30.629 24.61,0 49.84,5.57 75.71,16.73 v -41.691 c -19.76,-10.769 -44.63,-16.168 -74.64,-16.168" /><path
         id="path48"
         style="fill:#231f20;fill-opacity:1;fill-rule:nonzero;stroke:none"
         d="m 3946.49,456.059 c 13.1,0 24.87,-1.129 35.29,-3.399 l -6.2,-43.672 c -12.21,2.832 -22.98,4.25 -32.33,4.25 -23.89,0 -44.32,-10.207 -61.29,-30.629 -16.99,-20.418 -25.46,-45.859 -25.46,-76.3 v -166.77 h -44.73 v 310.852 h 36.91 l 5.12,-57.571 h 2.16 c 10.95,20.231 24.15,35.821 39.6,46.801 15.45,10.957 32.42,16.438 50.93,16.438" /><path
         id="path50"
         style="fill:#231f20;fill-opacity:1;fill-rule:nonzero;stroke:none"
         d="m 4160.64,498.609 c 8.62,11.719 17.93,25.891 27.9,42.539 9.96,16.633 17.82,31.09 23.57,43.403 h 54.43 v -5.961 c -7.91,-12.289 -19.67,-27.418 -35.3,-45.379 -15.62,-17.973 -29.2,-31.871 -40.68,-41.691 h -29.92 z m 33.15,-81.968 c -23.71,0 -42.63,-8.129 -56.72,-24.391 -14.11,-16.27 -22.41,-38.77 -24.92,-67.5 h 154.39 c 0,29.68 -6.29,52.422 -18.86,68.211 -12.59,15.789 -30.55,23.68 -53.89,23.68 z m 12.12,-282.77 c -43.64,0 -78.09,13.988 -103.33,41.981 -25.23,27.98 -37.85,66.828 -37.85,116.558 0,50.11 11.72,89.91 35.16,119.41 23.44,29.5 54.92,44.239 94.44,44.239 37,0 66.28,-12.809 87.83,-38.43 21.56,-25.629 32.33,-59.418 32.33,-101.391 v -29.777 h -203.42 c 0.9,-36.492 9.66,-64.199 26.27,-83.102 16.61,-18.91 40.02,-28.359 70.19,-28.359 31.79,0 63.22,6.988 94.31,20.98 V 154 c -15.81,-7.18 -30.77,-12.328 -44.86,-15.449 -14.12,-3.121 -31.14,-4.68 -51.07,-4.68" /><path
         id="path52"
         style="fill:#231f20;fill-opacity:1;fill-rule:nonzero;stroke:none"
         d="m 4515.45,172.73 c 27.84,0 49.72,8.032 65.62,24.098 15.9,16.07 23.83,38.582 23.83,67.512 v 28.07 l -44.72,-1.98 c -35.57,-1.328 -61.21,-7.141 -76.93,-17.442 -15.72,-10.316 -23.57,-26.328 -23.57,-48.078 0,-17.012 4.89,-29.969 14.69,-38.851 9.78,-8.887 23.47,-13.329 41.08,-13.329 z m 101.04,-33.191 -8.89,44.25 h -2.15 c -14.73,-19.48 -29.42,-32.668 -44.05,-39.57 -14.64,-6.899 -32.92,-10.348 -54.84,-10.348 -29.28,0 -52.23,7.938 -68.84,23.82 -16.61,15.891 -24.92,38.481 -24.92,67.789 0,62.77 47.69,95.668 143.06,98.7 l 50.13,1.699 v 19.293 c 0,24.387 -4.99,42.41 -14.95,54.027 -9.97,11.629 -25.91,17.442 -47.83,17.442 -24.61,0 -52.46,-7.942 -83.53,-23.821 l -13.74,36.02 c 14.55,8.32 30.49,14.84 47.82,19.57 17.34,4.719 34.72,7.09 52.14,7.09 35.21,0 61.3,-8.23 78.27,-24.68 16.98,-16.449 25.47,-42.832 25.47,-79.129 V 139.539 h -33.15" /><path
         id="path54"
         style="fill:#231f20;fill-opacity:1;fill-rule:nonzero;stroke:none"
         d="m 4881.31,172.73 c 7.9,0 15.53,0.61 22.9,1.84 7.36,1.231 13.2,2.5 17.51,3.828 v -36.019 c -4.84,-2.457 -11.98,-4.5 -21.42,-6.098 -9.43,-1.601 -17.91,-2.41 -25.45,-2.41 -57.13,0 -85.69,31.668 -85.69,95.008 v 184.922 h -42.3 v 22.687 l 42.3,19.571 18.86,66.371 h 25.87 v -72.039 h 85.68 v -36.59 h -85.68 v -182.93 c 0,-18.723 4.22,-33.09 12.67,-43.109 8.43,-10.032 20.01,-15.032 34.75,-15.032" /><path
         id="path56"
         style="fill:#231f20;fill-opacity:1;fill-rule:nonzero;stroke:none"
         d="m 5069.6,139.539 h -44.71 v 310.852 h 44.71 z m -48.49,395.09 c 0,10.769 2.52,18.66 7.54,23.68 5.03,5 11.31,7.511 18.86,7.511 7.19,0 13.38,-2.55 18.6,-7.648 5.2,-5.113 7.81,-12.961 7.81,-23.543 0,-10.598 -2.61,-18.488 -7.81,-23.68 -5.22,-5.211 -11.41,-7.801 -18.6,-7.801 -7.55,0 -13.83,2.59 -18.86,7.801 -5.02,5.192 -7.54,13.082 -7.54,23.68" /><path
         id="path58"
         style="fill:#231f20;fill-opacity:1;fill-rule:nonzero;stroke:none"
         d="m 5273.26,139.539 -112.1,310.852 h 47.96 l 63.6,-184.352 c 14.37,-43.109 22.8,-71.098 25.32,-83.949 h 2.17 c 1.97,10.019 8.21,30.762 18.72,62.25 10.51,31.48 34.08,100.16 70.72,206.051 h 47.96 L 5325.53,139.539 h -52.27" /><path
         id="path60"
         style="fill:#231f20;fill-opacity:1;fill-rule:nonzero;stroke:none"
         d="m 5641.81,416.641 c -23.71,0 -42.63,-8.129 -56.72,-24.391 -14.1,-16.27 -22.41,-38.77 -24.92,-67.5 h 154.39 c 0,29.68 -6.3,52.422 -18.86,68.211 -12.58,15.789 -30.54,23.68 -53.89,23.68 z m 12.13,-282.77 c -43.65,0 -78.1,13.988 -103.33,41.981 -25.25,27.98 -37.86,66.828 -37.86,116.558 0,50.11 11.72,89.91 35.16,119.41 23.44,29.5 54.91,44.239 94.44,44.239 37,0 66.29,-12.809 87.83,-38.43 21.56,-25.629 32.33,-59.418 32.33,-101.391 v -29.777 h -203.42 c 0.9,-36.492 9.65,-64.199 26.26,-83.102 16.63,-18.91 40.02,-28.359 70.2,-28.359 31.79,0 63.22,6.988 94.31,20.98 V 154 c -15.81,-7.18 -30.77,-12.328 -44.87,-15.449 -14.1,-3.121 -31.12,-4.68 -51.05,-4.68" /><path
         id="path62"
         style="fill:#231f20;fill-opacity:1;fill-rule:nonzero;stroke:none"
         d="m 6134.52,471.66 c 0,-13.039 3.24,-25.48 9.71,-37.289 6.47,-11.82 17.51,-26.051 33.14,-42.691 23.18,14.179 39.29,27.281 48.36,39.281 9.08,12.008 13.61,25.848 13.61,41.559 0,14.55 -4.63,26.41 -13.88,35.589 -9.26,9.172 -21.59,13.75 -37.05,13.75 -15.99,0 -28.96,-4.531 -38.93,-13.609 -9.97,-9.078 -14.96,-21.27 -14.96,-36.59 z m 41.77,-295.531 c 43.28,0 79.22,14.562 107.77,43.672 l -117.73,120.258 c -19.95,-12.86 -34.05,-23.489 -42.31,-31.911 -8.27,-8.41 -14.37,-17.437 -18.31,-27.078 -3.96,-9.64 -5.93,-20.609 -5.93,-32.898 0,-22.121 6.95,-39.672 20.87,-52.613 13.91,-12.957 32.48,-19.43 55.64,-19.43 z m -122.86,70.902 c 0,24.59 6.24,46.328 18.73,65.239 12.48,18.902 34.89,38 67.22,57.289 -15.28,17.961 -25.65,31.582 -31.13,40.839 -5.47,9.262 -9.83,18.903 -13.05,28.93 -3.24,10.024 -4.87,20.422 -4.87,31.211 0,28.352 8.81,50.481 26.41,66.359 17.61,15.883 42.12,23.821 73.57,23.821 29.09,0 52,-7.891 68.7,-23.688 16.71,-15.781 25.05,-37.761 25.05,-65.929 0,-20.243 -6.1,-38.911 -18.31,-56.02 -12.22,-17.121 -32.44,-34.453 -60.63,-52.043 l 109.67,-110.898 c 10.05,11.73 18.08,25.48 24.11,41.269 6.01,15.789 11.08,33.039 15.22,51.762 h 45.27 c -12.22,-54.082 -30.63,-95.113 -55.24,-123.102 l 80.57,-82.531 h -61.71 l -49.85,50.492 c -21.19,-20.051 -42.74,-34.422 -64.66,-43.109 -21.92,-8.703 -46.34,-13.051 -73.28,-13.051 -38.64,0 -68.58,10.02 -89.86,30.07 -21.3,20.039 -31.93,47.739 -31.93,83.09" /><path
         id="path64"
         style="fill:#231f20;fill-opacity:1;fill-rule:nonzero;stroke:none"
         d="m 6816.39,173.289 c 30.54,0 52.67,8.75 66.41,26.242 13.75,17.489 20.62,45.707 20.62,84.66 v 9.93 c 0,44.051 -6.97,75.481 -20.89,94.301 -13.91,18.808 -36.15,28.219 -66.68,28.219 -26.23,0 -46.31,-10.743 -60.22,-32.192 -13.93,-21.461 -20.88,-51.758 -20.88,-90.898 0,-39.699 6.9,-69.68 20.74,-89.903 13.83,-20.238 34.13,-30.359 60.9,-30.359 z m 89.44,7.941 h -2.41 c -20.66,-31.582 -51.56,-47.359 -92.69,-47.359 -38.63,0 -68.67,13.899 -90.13,41.688 -21.48,27.8 -32.2,67.312 -32.2,118.562 0,51.231 10.78,91.027 32.33,119.399 21.56,28.371 51.56,42.539 90,42.539 40.05,0 70.77,-15.309 92.14,-45.938 h 3.51 l -1.9,22.41 -1.06,21.828 v 126.5 h 44.73 v -441.32 h -36.39 l -5.93,41.691" /><path
         id="path66"
         style="fill:#231f20;fill-opacity:1;fill-rule:nonzero;stroke:none"
         d="m 7131.85,139.539 h -44.72 v 310.852 h 44.72 z m -48.5,395.09 c 0,10.769 2.52,18.66 7.54,23.68 5.04,5 11.32,7.511 18.87,7.511 7.19,0 13.38,-2.55 18.59,-7.648 5.21,-5.113 7.81,-12.961 7.81,-23.543 0,-10.598 -2.6,-18.488 -7.81,-23.68 -5.21,-5.211 -11.4,-7.801 -18.59,-7.801 -7.55,0 -13.83,2.59 -18.87,7.801 -5.02,5.192 -7.54,13.082 -7.54,23.68" /><path
         id="path68"
         style="fill:#231f20;fill-opacity:1;fill-rule:nonzero;stroke:none"
         d="m 7301.29,350.84 c 0,-21.738 5.84,-38.199 17.51,-49.352 11.68,-11.16 27.94,-16.726 48.77,-16.726 43.66,0 65.48,22.297 65.48,66.929 0,46.7 -22.1,70.047 -66.28,70.047 -21.03,0 -37.18,-5.957 -48.5,-17.859 -11.32,-11.91 -16.98,-29.598 -16.98,-53.039 z M 7277.04,87.3594 c 0,-16.8281 6.74,-29.5899 20.22,-38.2891 13.47,-8.6992 32.77,-13.0508 57.93,-13.0508 37.54,0 65.33,5.9102 83.38,17.7305 18.06,11.8086 27.08,27.8398 27.08,48.07 0,16.84 -4.93,28.5 -14.82,35.02 -9.88,6.539 -28.46,9.801 -55.77,9.801 h -53.62 c -20.29,0 -36.11,-5.102 -47.41,-15.332 -11.32,-10.207 -16.99,-24.86 -16.99,-43.9496 z m 235.49,363.0316 v -29.782 l -54.7,-6.808 c 5.03,-6.621 9.53,-15.262 13.48,-25.949 3.95,-10.68 5.93,-22.743 5.93,-36.161 0,-30.441 -9.88,-54.742 -29.64,-72.89 -19.77,-18.153 -46.88,-27.223 -81.38,-27.223 -8.8,0 -17.07,0.754 -24.78,2.274 -19.04,-10.602 -28.57,-23.93 -28.57,-39.993 0,-8.519 3.32,-14.8 9.97,-18.871 6.65,-4.058 18.06,-6.097 34.22,-6.097 h 52.28 c 31.96,0 56.54,-7.09 73.69,-21.27 17.16,-14.18 25.73,-34.793 25.73,-61.832 0,-34.4101 -13.11,-60.6484 -39.33,-78.6992 C 7443.2,9.03125 7404.93,0 7354.64,0 c -38.62,0 -68.39,7.57031 -89.32,22.6914 -20.93,15.1289 -31.39,36.5 -31.39,64.0977 0,18.9099 5.75,35.2619 17.25,49.0629 11.49,13.796 27.66,23.168 48.49,28.089 -7.54,3.579 -13.87,9.161 -18.99,16.731 -5.11,7.558 -7.68,16.348 -7.68,26.367 0,11.352 2.87,21.281 8.62,29.781 5.76,8.52 14.82,16.739 27.22,24.68 -15.27,6.621 -27.71,17.871 -37.31,33.75 -9.62,15.891 -14.42,34.039 -14.42,54.461 0,34.027 9.69,60.269 29.09,78.711 19.4,18.418 46.89,27.637 82.45,27.637 15.44,0 29.38,-1.887 41.76,-5.668 h 102.12" /><path
         id="path70"
         style="fill:#231f20;fill-opacity:1;fill-rule:nonzero;stroke:none"
         d="m 7662.02,139.539 h -44.71 v 310.852 h 44.71 z m -48.49,395.09 c 0,10.769 2.52,18.66 7.54,23.68 5.04,5 11.32,7.511 18.86,7.511 7.19,0 13.38,-2.55 18.6,-7.648 5.2,-5.113 7.81,-12.961 7.81,-23.543 0,-10.598 -2.61,-18.488 -7.81,-23.68 -5.22,-5.211 -11.41,-7.801 -18.6,-7.801 -7.54,0 -13.82,2.59 -18.86,7.801 -5.02,5.192 -7.54,13.082 -7.54,23.68" /><path
         id="path72"
         style="fill:#231f20;fill-opacity:1;fill-rule:nonzero;stroke:none"
         d="m 7896.39,172.73 c 7.9,0 15.54,0.61 22.91,1.84 7.35,1.231 13.2,2.5 17.51,3.828 v -36.019 c -4.85,-2.457 -11.99,-4.5 -21.43,-6.098 -9.42,-1.601 -17.91,-2.41 -25.46,-2.41 -57.11,0 -85.68,31.668 -85.68,95.008 v 184.922 h -42.29 v 22.687 l 42.29,19.571 18.87,66.371 h 25.86 v -72.039 h 85.68 v -36.59 h -85.68 v -182.93 c 0,-18.723 4.23,-33.09 12.67,-43.109 8.43,-10.032 20.02,-15.032 34.75,-15.032" /><path
         id="path74"
         style="fill:#231f20;fill-opacity:1;fill-rule:nonzero;stroke:none"
         d="m 8120.53,172.73 c 27.84,0 49.71,8.032 65.61,24.098 15.89,16.07 23.83,38.582 23.83,67.512 v 28.07 l -44.72,-1.98 c -35.57,-1.328 -61.2,-7.141 -76.92,-17.442 -15.72,-10.316 -23.57,-26.328 -23.57,-48.078 0,-17.012 4.88,-29.969 14.68,-38.851 9.78,-8.887 23.48,-13.329 41.09,-13.329 z m 101.03,-33.191 -8.89,44.25 h -2.15 c -14.73,-19.48 -29.41,-32.668 -44.05,-39.57 -14.64,-6.899 -32.92,-10.348 -54.84,-10.348 -29.27,0 -52.22,7.938 -68.83,23.82 -16.63,15.891 -24.93,38.481 -24.93,67.789 0,62.77 47.69,95.668 143.07,98.7 l 50.12,1.699 v 19.293 c 0,24.387 -4.99,42.41 -14.95,54.027 -9.97,11.629 -25.91,17.442 -47.83,17.442 -24.62,0 -52.46,-7.942 -83.52,-23.821 l -13.75,36.02 c 14.55,8.32 30.49,14.84 47.83,19.57 17.33,4.719 34.71,7.09 52.14,7.09 35.19,0 61.3,-8.23 78.27,-24.68 16.96,-16.449 25.46,-42.832 25.46,-79.129 V 139.539 h -33.15" /><path
         id="path76"
         style="fill:#231f20;fill-opacity:1;fill-rule:nonzero;stroke:none"
         d="M 8435.73,139.539 H 8391 v 441.32 h 44.73 v -441.32" /><path
         id="path78"
         style="fill:#231f20;fill-opacity:1;fill-rule:nonzero;stroke:none"
         d="m 8687.35,416.641 c -23.71,0 -42.63,-8.129 -56.72,-24.391 -14.1,-16.27 -22.41,-38.77 -24.92,-67.5 h 154.39 c 0,29.68 -6.3,52.422 -18.87,68.211 -12.58,15.789 -30.53,23.68 -53.88,23.68 z m 12.13,-282.77 c -43.66,0 -78.1,13.988 -103.33,41.981 -25.25,27.98 -37.87,66.828 -37.87,116.558 0,50.11 11.72,89.91 35.17,119.41 23.44,29.5 54.91,44.239 94.43,44.239 37.01,0 66.29,-12.809 87.84,-38.43 21.56,-25.629 32.33,-59.418 32.33,-101.391 v -29.777 h -203.42 c 0.9,-36.492 9.65,-64.199 26.26,-83.102 16.62,-18.91 40.02,-28.359 70.2,-28.359 31.78,0 63.22,6.988 94.3,20.98 V 154 c -15.81,-7.18 -30.77,-12.328 -44.86,-15.449 -14.1,-3.121 -31.12,-4.68 -51.05,-4.68" /></g></g></svg>