<?xml version="1.0" encoding="UTF-8"?>
<svg width="70px" height="20px" viewBox="0 0 70 20" version="1.1" xmlns="http://www.w3.org/2000/svg" xmlns:xlink="http://www.w3.org/1999/xlink">
    <title>logo-gabor</title>
    <g id=".symbols" stroke="none" stroke-width="1" fill="none" fill-rule="evenodd">
        <g id=".sticky" transform="translate(-1396.000000, -20.000000)" fill="#222222" fill-rule="nonzero">
            <g id=".gabor-logo" transform="translate(1396.000000, 20.000000)">
                <path d="M4.51219853,1.6245938 C7.66358037,-0.084378936 11.3673304,-0.462782873 14.7991985,0.573593796 C15.4015938,0.705989507 15.8975878,1.13139546 16.1201985,1.7065938 C16.2377046,2.16883158 16.0867574,2.65796247 15.7291985,2.9735938 C15.0165319,3.5355938 14.1834208,3.39848269 13.351643,3.19426046 L12.9956035,3.10447038 C12.6995636,3.02929221 12.4059128,2.95706999 12.1201985,2.9165938 C10.1876344,2.53059688 8.18062437,2.86456506 6.47719853,3.8555938 C4.5004657,5.09591464 3.29863933,7.26395956 3.29419853,9.5975938 C3.24641299,12.3095121 4.70169692,14.825668 7.07619853,16.1365938 C9.22030693,17.1608595 11.708204,17.1817354 13.8691985,16.1935938 L13.8691985,16.1935938 L13.8801985,16.2045938 L13.8801985,8.1045938 C13.9495802,7.33121187 14.5977107,6.73862364 15.3741985,6.73862364 C16.1506864,6.73862364 16.7988168,7.33121187 16.8681985,8.1045938 L16.8681985,8.1045938 L16.8681985,18.4865938 C15.6430599,18.9424574 14.3768887,19.279344 13.0871985,19.4925938 C12.2379665,19.6519238 11.3762245,19.7352534 10.5121985,19.7415938 C9.22813619,19.7942816 7.94646311,19.5903018 6.74219853,19.1415938 C3.19558892,17.9027411 0.631161201,14.7957568 0.0871985299,11.0785938 C-0.419409708,7.33217613 1.31085021,3.63548071 4.51219853,1.6245938 Z M48.9351985,7.5485938 C50.893511,6.04176205 53.5002905,5.67669136 55.7971985,6.5875938 C57.2803223,7.20683311 58.5057048,8.31677343 59.2681985,9.7315938 C60.4933971,12.070007 60.2747356,14.9028971 58.7051985,17.0255938 C57.178171,19.0822337 54.6166618,20.0945899 52.0961985,19.6375938 C49.5697062,19.2136503 47.483283,17.4302873 46.6711985,15.0005938 C45.7926428,12.2875651 46.6959258,9.31439169 48.9351985,7.5485938 Z M22.9141985,6.1035938 C25.3851985,5.8095938 28.4771985,6.0475938 29.8101985,8.2975938 C30.0984719,8.88788888 30.2329653,9.54143782 30.2011985,10.1975938 L30.2011985,10.1975938 L30.2011985,18.4875938 C28.9757003,18.9431729 27.7091927,19.279725 26.4191985,19.4925938 C24.1891985,19.8205938 21.8681985,19.7295938 20.1781985,18.4065938 C18.8164655,17.3193899 18.3709456,15.4440812 19.0981985,13.8605938 C20.4771985,10.9885938 24.3281985,11.1015938 27.4541985,11.0335938 C27.5021985,10.3665938 27.5231985,9.4845938 26.9021985,9.0435938 C25.9591985,8.3765938 23.7421985,8.3425938 22.2591985,8.7045938 C21.4201985,8.9075938 20.2361985,9.1565938 20.0291985,7.9805938 C19.8341985,6.8385938 21.1901985,6.3035938 22.9141985,6.1035938 Z M66.1181985,6.0745938 C67.2689395,5.98341968 68.4102218,6.34186261 69.3021985,7.0745938 L69.3021985,7.0745938 C69.6170282,7.46004318 69.6936375,7.98629915 69.5011985,8.4435938 C69.3593567,8.76343045 69.0648527,8.98939263 68.7191985,9.0435938 C68.0794338,8.99299183 67.444337,8.89471896 66.8191985,8.7495938 C66.0759321,8.62704115 65.3129515,8.73778513 64.6351985,9.0665938 L64.6351985,9.0665938 L64.6351985,18.3375938 C64.5704523,19.1052295 63.9107663,19.6845522 63.1411985,19.6495938 C62.3429323,19.6731941 61.6754503,19.047709 61.6471985,18.2495938 L61.6471985,18.2495938 L61.6471985,7.3075938 C63.0060251,6.5173365 64.5463862,6.09253998 66.1181985,6.0745938 Z M34.1761985,0.121623644 C34.9526864,0.121623644 35.6008168,0.714211871 35.6701985,1.4875938 L35.6701985,1.4875938 L35.6701985,16.7995938 C35.8881985,16.9795938 39.0261985,17.8625938 40.7501985,15.9735938 C42.0627928,14.6329084 42.4392387,12.633878 41.7041985,10.9075938 C41.2874254,9.98405269 40.4466322,9.32164347 39.4511985,9.1325938 C38.7783095,9.01678425 38.0990973,8.94131623 37.4171985,8.9065938 C36.8324467,8.83058659 36.4116418,8.30700652 36.4631985,7.7195938 C36.4871985,6.5655938 37.9811985,6.4185938 38.7631985,6.4075938 L38.7631985,6.4075938 C41.1253266,6.374087 43.2959281,7.70456877 44.3361985,9.8255938 C45.5823149,12.3946282 45.0861844,15.4689578 43.0951985,17.5155938 C43.0371985,17.5735938 42.9681985,17.6165938 42.9111985,17.6735938 L42.9111985,17.6735938 L42.9341985,17.6735938 C42.770059,17.8333832 42.5974785,17.984266 42.4171985,18.1255938 C40.716593,19.4058639 38.5520698,19.903188 36.4631985,19.4935938 C35.1735097,19.280338 33.907339,18.9434515 32.6821985,18.4875938 L32.6821985,18.4875938 L32.6821985,1.4875938 C32.7515802,0.714211871 33.3997107,0.121623644 34.1761985,0.121623644 Z M54.7051985,8.9965938 C53.3846114,8.48021906 51.8903013,8.69022611 50.7631985,9.5505938 C49.5300628,10.6761691 49.0060687,12.3829801 49.3951985,14.0065938 C49.6872176,15.6341454 50.9456039,16.9171281 52.5671985,17.2405938 C53.9740728,17.4446174 55.3855285,16.9003504 56.2911985,15.8045938 L56.2911985,15.8045938 C57.3219063,14.2459902 57.4234016,12.2486397 56.5561985,10.5915938 C56.1212814,9.87935264 55.4738858,9.32149416 54.7051985,8.9965938 Z M26.9425689,13.4157419 L26.3317174,13.4154651 C25.7762892,13.4174487 25.1485795,13.4264509 24.7761985,13.4535938 C23.782855,13.4359441 22.810686,13.7416333 22.0061985,14.3245938 C21.6271369,14.7397707 21.4844431,15.3188287 21.6271985,15.8625938 C21.8178418,16.4253589 22.2666646,16.8626544 22.8341985,17.0385938 C24.3737805,17.4247557 25.9963961,17.3098555 27.4661985,16.7105938 L27.4661985,16.7105938 L27.4661985,13.4195938 L27.4661985,13.4195938 L27.416901,13.4190569 C27.3369226,13.4182363 27.1651615,13.4166679 26.9425689,13.4157419 Z"/>
            </g>
        </g>
    </g>
</svg>